<svg width="389" height="389" viewBox="0 0 389 389" fill="none" xmlns="http://www.w3.org/2000/svg">
<path d="M162.566 50.8454L194.474 19.5273L226.362 50.8454H162.566Z" fill="#9DD7FF"/>
<path d="M143.704 19.6875H194.543L162.561 50.8508L119.523 39.8889L143.704 19.6875Z" fill="#3EA5DF"/>
<path d="M245.383 19.6875H194.543L226.366 50.8534L269.715 40.0009L245.383 19.6875Z" fill="#BCE3FF"/>
<path d="M95.9922 73.5409L119.529 39.8867L162.751 50.8955L114.014 110.65L95.9922 73.5409Z" fill="#006BBF"/>
<path d="M293.016 73.5409L269.479 39.8867L226.376 50.846L275.12 110.375L293.016 73.5409Z" fill="#9BD4F0"/>
<path d="M172.542 70.5289L162.573 50.8555L114.016 110.647L172.542 70.5289Z" fill="#80CBF5"/>
<path d="M216.467 70.5276L226.373 50.8438L275.113 110.355L216.467 70.5276Z" fill="#CFF7FF"/>
<path d="M216.59 70.5809H172.536L162.566 50.8438H226.375L216.59 70.5809Z" fill="#E1F7FC"/>
<path d="M164.113 76.3026L172.537 70.582H216.676L224.951 76.3271L195.796 106.793L164.113 76.3026Z" fill="#0155A6"/>
<path d="M26.6406 264.542L96.0664 73.6289L126.602 135.476L118.427 321.402L26.6406 264.542Z" fill="#003153"/>
<path d="M362.359 265.482L292.933 73.6289L262.603 135.67L270.576 321.689L362.359 265.482Z" fill="#9BD4F0"/>
<path d="M194.562 369.469L118.422 321.399L126.302 135.617L194.596 157.967L194.562 369.469Z" fill="#076AAF"/>
<path d="M194.558 369.472L270.578 321.686L262.697 135.617L194.558 157.967V369.472Z" fill="#69B7E1"/>
<path d="M148.629 167.421L166.096 132.859H237.982L247.243 167.421H148.629Z" fill="#076AAF"/>
<path d="M154.11 229.098L142.223 165.932L164.367 152.18L154.11 229.098Z" fill="#E1F7FC"/>
<path d="M238.191 229.098L250.078 165.932L227.934 152.18L238.191 229.098Z" fill="#E1F7FC"/>
<path d="M109.363 140.636L114.016 110.643L164.11 76.3008L195.792 106.784V139.227L136.676 174.619L116.416 160.129L109.363 140.636Z" fill="#0E86D4"/>
<path d="M282.223 140.635L275.128 110.315L224.933 76.3164L195.794 106.782V139.225L254.91 174.617L275.17 160.127L282.223 140.635Z" fill="#71C8FB"/>
<circle cx="138.786" cy="65.5084" r="8.11782" fill="#042A69"/>
<circle cx="250.258" cy="65.5084" r="8.11782" fill="#042A69"/>
</svg>
